%TF.GenerationSoftware,Altium Limited,Altium Designer,23.2.1 (34)*%
G04 Layer_Physical_Order=1*
G04 Layer_Color=255*
%FSLAX26Y26*%
%MOIN*%
%TF.SameCoordinates,DAB62C51-C882-44BF-9B97-BA74F53622F3*%
%TF.FilePolarity,Positive*%
%TF.FileFunction,Copper,L1,Top,Signal*%
%TF.Part,Single*%
G01*
G75*
%TA.AperFunction,Conductor*%
%ADD10C,0.011614*%
%TA.AperFunction,SMDPad,CuDef*%
%ADD11R,0.064961X0.009842*%
%ADD12R,0.011811X0.035433*%
%ADD13R,0.023622X0.027559*%
%TA.AperFunction,ConnectorPad*%
%ADD14R,0.041339X0.025591*%
%TA.AperFunction,SMDPad,CuDef*%
%ADD15R,0.031496X0.039370*%
%TA.AperFunction,TestPad*%
%ADD16R,0.019685X0.192913*%
%ADD17R,0.019685X0.155118*%
%ADD18R,0.106299X0.019685*%
%ADD19R,0.019685X0.103937*%
%ADD20R,0.078740X0.019685*%
%ADD21R,0.196850X0.019685*%
%ADD22R,0.035433X0.192913*%
%TA.AperFunction,SMDPad,CuDef*%
%ADD23R,0.027559X0.023622*%
%ADD24R,0.029528X0.011811*%
%ADD25R,0.011811X0.029528*%
%ADD26R,0.039370X0.031496*%
%ADD27R,0.118110X0.082677*%
%ADD28R,0.062992X0.031496*%
G04:AMPARAMS|DCode=29|XSize=135.827mil|YSize=135.827mil|CornerRadius=6.791mil|HoleSize=0mil|Usage=FLASHONLY|Rotation=270.000|XOffset=0mil|YOffset=0mil|HoleType=Round|Shape=RoundedRectangle|*
%AMROUNDEDRECTD29*
21,1,0.135827,0.122244,0,0,270.0*
21,1,0.122244,0.135827,0,0,270.0*
1,1,0.013583,-0.061122,-0.061122*
1,1,0.013583,-0.061122,0.061122*
1,1,0.013583,0.061122,0.061122*
1,1,0.013583,0.061122,-0.061122*
%
%ADD29ROUNDEDRECTD29*%
G04:AMPARAMS|DCode=30|XSize=9.842mil|YSize=27.559mil|CornerRadius=0.492mil|HoleSize=0mil|Usage=FLASHONLY|Rotation=90.000|XOffset=0mil|YOffset=0mil|HoleType=Round|Shape=RoundedRectangle|*
%AMROUNDEDRECTD30*
21,1,0.009842,0.026575,0,0,90.0*
21,1,0.008858,0.027559,0,0,90.0*
1,1,0.000984,0.013287,0.004429*
1,1,0.000984,0.013287,-0.004429*
1,1,0.000984,-0.013287,-0.004429*
1,1,0.000984,-0.013287,0.004429*
%
%ADD30ROUNDEDRECTD30*%
G04:AMPARAMS|DCode=31|XSize=9.842mil|YSize=27.559mil|CornerRadius=0.492mil|HoleSize=0mil|Usage=FLASHONLY|Rotation=0.000|XOffset=0mil|YOffset=0mil|HoleType=Round|Shape=RoundedRectangle|*
%AMROUNDEDRECTD31*
21,1,0.009842,0.026575,0,0,0.0*
21,1,0.008858,0.027559,0,0,0.0*
1,1,0.000984,0.004429,-0.013287*
1,1,0.000984,-0.004429,-0.013287*
1,1,0.000984,-0.004429,0.013287*
1,1,0.000984,0.004429,0.013287*
%
%ADD31ROUNDEDRECTD31*%
%TA.AperFunction,ConnectorPad*%
%ADD32R,0.023622X0.059055*%
%ADD33R,0.011811X0.059055*%
%TA.AperFunction,TestPad*%
G04:AMPARAMS|DCode=34|XSize=35.433mil|YSize=31.496mil|CornerRadius=1.575mil|HoleSize=0mil|Usage=FLASHONLY|Rotation=90.000|XOffset=0mil|YOffset=0mil|HoleType=Round|Shape=RoundedRectangle|*
%AMROUNDEDRECTD34*
21,1,0.035433,0.028346,0,0,90.0*
21,1,0.032283,0.031496,0,0,90.0*
1,1,0.003150,0.014173,0.016142*
1,1,0.003150,0.014173,-0.016142*
1,1,0.003150,-0.014173,-0.016142*
1,1,0.003150,-0.014173,0.016142*
%
%ADD34ROUNDEDRECTD34*%
%TA.AperFunction,SMDPad,CuDef*%
%ADD35R,0.023622X0.047244*%
%ADD36R,0.041339X0.023622*%
%TA.AperFunction,Conductor*%
%ADD37C,0.006693*%
%ADD38C,0.009842*%
%ADD39C,0.019685*%
%ADD40C,0.015748*%
%ADD41C,0.011811*%
%ADD42C,0.007874*%
%TA.AperFunction,WasherPad*%
%ADD43C,0.045354*%
%TA.AperFunction,ComponentPad*%
%ADD44C,0.023622*%
%ADD45O,0.039370X0.086614*%
%ADD46O,0.039370X0.074803*%
%TA.AperFunction,ViaPad*%
%ADD47C,0.027559*%
%ADD48C,0.023622*%
G36*
X423228Y923228D02*
Y904528D01*
X455709D01*
Y898622D01*
X461614D01*
Y874016D01*
X482283D01*
Y838583D01*
X429904D01*
X421983Y840525D01*
X415246Y851024D01*
X412058Y858722D01*
X405966Y864814D01*
X398008Y868110D01*
X389394D01*
X381435Y864814D01*
X375344Y858722D01*
X372047Y850764D01*
Y842150D01*
X360021Y830033D01*
X324803D01*
Y838583D01*
X261811D01*
Y874016D01*
X286417D01*
Y898622D01*
X292323D01*
Y904528D01*
X324803D01*
Y923228D01*
X331932Y936024D01*
X416100D01*
X423228Y923228D01*
D02*
G37*
G36*
X145975Y923357D02*
X146458Y920276D01*
X141732Y914117D01*
X138440Y906168D01*
X137316Y897638D01*
Y862205D01*
X138440Y853674D01*
X140736Y848131D01*
X137402Y839715D01*
X132120Y832384D01*
X-39370D01*
X-45284Y831207D01*
X-50298Y827857D01*
X-79826Y798330D01*
X-83176Y793316D01*
X-84352Y787402D01*
Y761779D01*
X-100100Y755256D01*
X-100123Y755279D01*
X-109240Y759055D01*
X-119107D01*
X-125420Y756440D01*
X-130504Y755888D01*
X-145801Y759972D01*
X-146970Y761495D01*
X-153796Y766732D01*
X-161745Y770025D01*
X-170276Y771148D01*
X-178806Y770025D01*
X-186755Y766732D01*
X-193581Y761495D01*
X-198819Y754669D01*
X-202112Y746720D01*
X-203235Y738189D01*
Y690945D01*
X-202112Y682414D01*
X-198819Y674465D01*
X-193581Y667639D01*
X-186755Y662402D01*
X-178806Y659109D01*
X-170276Y657986D01*
X-165354Y658634D01*
X-155193Y652622D01*
X-149606Y647091D01*
Y643701D01*
X-134175D01*
X-126487Y638562D01*
X-120498Y632048D01*
Y629918D01*
X-120074Y627785D01*
Y625611D01*
X-119242Y623601D01*
X-118818Y621469D01*
X-117610Y619661D01*
X-116778Y617652D01*
X-115240Y616115D01*
X-114032Y614306D01*
X-112224Y613098D01*
X-110686Y611561D01*
X-108678Y610729D01*
X-106870Y609520D01*
X-104737Y609096D01*
X-102728Y608264D01*
X-100553D01*
X-98421Y607840D01*
X-96288Y608264D01*
X-94114Y608264D01*
X-85837Y603110D01*
X-84130Y601480D01*
X-80709Y596770D01*
Y541339D01*
X-47724D01*
X-45531Y537402D01*
X-54783Y521653D01*
X-80709D01*
Y472441D01*
X-127953D01*
X-157774Y442620D01*
X-173522Y449143D01*
Y474410D01*
X-174698Y480324D01*
X-178049Y485338D01*
X-194679Y501969D01*
X-188156Y517716D01*
X-161417D01*
Y517716D01*
X-151945Y519685D01*
X-143331D01*
X-135372Y522982D01*
X-129281Y529073D01*
X-125984Y537032D01*
Y545646D01*
X-129281Y553604D01*
X-135372Y559696D01*
X-143331Y562992D01*
X-151945D01*
X-160471Y574803D01*
X-187008D01*
X-212598D01*
Y561409D01*
X-244095D01*
Y573819D01*
X-330709D01*
Y566330D01*
X-341453D01*
X-349134Y564803D01*
X-355646Y560452D01*
X-378365Y537732D01*
X-382716Y531221D01*
X-384244Y523540D01*
Y382382D01*
X-382716Y374701D01*
X-378365Y368190D01*
X-376103Y365927D01*
X-382129Y351378D01*
X-395669D01*
Y298228D01*
Y245079D01*
X-330709D01*
Y267760D01*
X-314961Y272537D01*
X-314095Y271241D01*
X-304252Y261399D01*
X-297741Y257048D01*
X-290060Y255520D01*
X-287402D01*
Y194882D01*
X-287402Y194882D01*
X-291339Y181102D01*
X-291339Y181102D01*
X-291339Y180765D01*
Y133858D01*
Y101885D01*
X-291339Y94488D01*
X-304640Y88583D01*
X-413386D01*
X-442913Y59055D01*
Y-118110D01*
X-420345Y-140678D01*
X-278474Y-140678D01*
X-259842Y-122047D01*
X-190945D01*
Y-106076D01*
X-188372Y-102329D01*
X-175197Y-96049D01*
X-173228Y-97472D01*
Y-122047D01*
X-153543D01*
Y-98425D01*
X-141732D01*
Y-122047D01*
X-131890Y-122047D01*
X-131890Y-133718D01*
Y-141732D01*
X-108268D01*
Y-147638D01*
X-102362D01*
Y-173228D01*
X-94488D01*
Y-210630D01*
Y-240157D01*
X-102362D01*
Y-265748D01*
X-114173D01*
Y-240157D01*
X-122525D01*
X-133213Y-235412D01*
X-135827Y-226040D01*
X-135827Y-222441D01*
Y-187346D01*
X-133213Y-177974D01*
X-122525Y-173228D01*
X-114173D01*
Y-153543D01*
X-131890D01*
Y-165017D01*
X-134504Y-174389D01*
X-145192Y-179134D01*
X-198819D01*
Y-184615D01*
X-206693D01*
X-208826Y-185039D01*
X-211000D01*
X-213009Y-185872D01*
X-215142Y-186296D01*
X-216950Y-187504D01*
X-218959Y-188336D01*
X-220496Y-189873D01*
X-222304Y-191082D01*
X-223512Y-192890D01*
X-225050Y-194427D01*
X-225882Y-196436D01*
X-227090Y-198244D01*
X-227514Y-200377D01*
X-228346Y-202386D01*
Y-204560D01*
X-228771Y-206693D01*
X-228346Y-208826D01*
Y-211000D01*
X-227514Y-213009D01*
X-227090Y-215142D01*
X-225882Y-216950D01*
X-225050Y-218959D01*
X-223512Y-220496D01*
X-222304Y-222304D01*
X-220496Y-223512D01*
X-218959Y-225050D01*
X-216950Y-225882D01*
X-215142Y-227090D01*
X-213009Y-227514D01*
X-211000Y-228346D01*
X-210490D01*
X-204387Y-233494D01*
X-202794Y-235340D01*
X-198819Y-242039D01*
X-198819Y-250000D01*
Y-259842D01*
X-167323D01*
Y-271653D01*
X-198819D01*
Y-293307D01*
X-210518Y-305006D01*
Y-383852D01*
X-212161Y-384533D01*
X-214877Y-387248D01*
X-216346Y-390796D01*
X-216536Y-392716D01*
Y-405969D01*
X-222610Y-409637D01*
X-236220Y-401303D01*
Y-391732D01*
X-236318D01*
X-236410Y-390796D01*
X-237880Y-387248D01*
X-240595Y-384533D01*
X-244143Y-383063D01*
X-246063Y-382874D01*
X-285433D01*
X-287353Y-383063D01*
X-290902Y-384533D01*
X-293617Y-387248D01*
X-295087Y-390796D01*
X-295179Y-391732D01*
X-295276D01*
Y-392714D01*
X-295276Y-392716D01*
X-295276Y-409762D01*
X-300779Y-416741D01*
X-307758Y-422244D01*
X-409988D01*
X-411135Y-420268D01*
X-411170Y-402558D01*
X-404528Y-395917D01*
X-399832Y-387784D01*
X-397402Y-378712D01*
Y-369320D01*
X-399832Y-360248D01*
X-404528Y-352114D01*
X-411170Y-345473D01*
X-419303Y-340777D01*
X-428375Y-338346D01*
X-437767D01*
X-446839Y-340777D01*
X-454972Y-345473D01*
X-461613Y-352114D01*
X-466309Y-360248D01*
X-466536Y-361093D01*
X-482284Y-359020D01*
X-482284Y-245078D01*
X-482284Y-97441D01*
Y233407D01*
X-472441Y245079D01*
X-407480D01*
Y298228D01*
Y351378D01*
X-472441D01*
X-482284Y363049D01*
Y581833D01*
X-472441Y593504D01*
X-407480D01*
Y646653D01*
Y699803D01*
X-467286D01*
X-476694Y713573D01*
X-472696Y722441D01*
X-419291D01*
Y748031D01*
Y773622D01*
X-437301D01*
Y789370D01*
X-423228D01*
Y798522D01*
X-324803D01*
Y789370D01*
X-310730D01*
Y773622D01*
X-358268D01*
Y722441D01*
X-358268Y722441D01*
X-359936Y707384D01*
X-362727Y703666D01*
X-364207Y702330D01*
X-368229Y699803D01*
X-395669D01*
Y652559D01*
X-330709D01*
Y694882D01*
X-330339D01*
X-328330Y695714D01*
X-326197Y696138D01*
X-324389Y697346D01*
X-322380Y698178D01*
X-320843Y699716D01*
X-319034Y700924D01*
X-318273Y702063D01*
X-315290Y704395D01*
X-305476Y705627D01*
X-303466Y705496D01*
X-299194Y704470D01*
X-299165Y704458D01*
X-292440Y697734D01*
X-287427Y694383D01*
X-281512Y693207D01*
X-271074D01*
X-268171Y690304D01*
X-260213Y687008D01*
X-251598D01*
X-243640Y690304D01*
X-237549Y696396D01*
X-234252Y704354D01*
Y712968D01*
X-237549Y720927D01*
X-243640Y727018D01*
X-251598Y730315D01*
X-260212D01*
X-271654Y742621D01*
Y773622D01*
X-279821D01*
Y789370D01*
X-259842D01*
Y838583D01*
X-324803D01*
Y829431D01*
X-423228D01*
Y838583D01*
X-482284D01*
Y874016D01*
X-461614D01*
Y898622D01*
X-455709D01*
Y904528D01*
X-423228D01*
Y923228D01*
X-416100Y936024D01*
X-331932D01*
X-324803Y923228D01*
X-324803Y920275D01*
Y904528D01*
X-259842D01*
Y920275D01*
X-259842Y923228D01*
X-252714Y936024D01*
X-199797D01*
X-194576Y923357D01*
X-194094Y920276D01*
X-198819Y914117D01*
X-202112Y906168D01*
X-203235Y897638D01*
Y862205D01*
X-202112Y853674D01*
X-198819Y845725D01*
X-193581Y838899D01*
X-186755Y833661D01*
X-178806Y830369D01*
X-170276Y829246D01*
X-161745Y830369D01*
X-153796Y833661D01*
X-146970Y838899D01*
X-141732Y845725D01*
X-138440Y853674D01*
X-137316Y862205D01*
Y897638D01*
X-138440Y906168D01*
X-141732Y914117D01*
X-146458Y920276D01*
X-145975Y923357D01*
X-140754Y936024D01*
X140754D01*
X145975Y923357D01*
D02*
G37*
G36*
X259843Y789370D02*
X262735D01*
X271653Y773622D01*
X261811Y771654D01*
Y771654D01*
X232486D01*
X213353Y790786D01*
X208742Y803370D01*
X213745Y811968D01*
X234454Y832677D01*
X259843D01*
Y789370D01*
D02*
G37*
G36*
X71442Y785727D02*
X38285Y752569D01*
X34935Y747555D01*
X33794Y741821D01*
X28827Y738466D01*
X18010Y735785D01*
X16850Y736945D01*
X11836Y740295D01*
X5922Y741472D01*
X-25607D01*
X-31521Y740295D01*
X-36535Y736945D01*
X-37695Y735785D01*
X-48443Y738449D01*
X-53443Y741845D01*
Y781000D01*
X-32969Y801475D01*
X64919D01*
X71442Y785727D01*
D02*
G37*
G36*
X423228Y789370D02*
X436699D01*
Y773622D01*
X389764D01*
Y722441D01*
X395322D01*
Y721355D01*
X396697Y714443D01*
X400613Y708582D01*
X403701Y705494D01*
X397675Y690945D01*
X366142D01*
Y690945D01*
X358268Y685039D01*
X301181D01*
Y659449D01*
Y633858D01*
X358268D01*
X366142Y627953D01*
Y627953D01*
X399926D01*
X404637Y624528D01*
X406269Y622818D01*
X411417Y614543D01*
Y612369D01*
X410993Y610236D01*
Y607628D01*
X409449Y592520D01*
X344488D01*
Y578701D01*
X328740Y574583D01*
X327857Y575905D01*
X323936Y579826D01*
X318923Y583176D01*
X313009Y584352D01*
X305118D01*
Y592520D01*
X240157D01*
Y589007D01*
X222441D01*
X220308Y588583D01*
X199243D01*
Y600394D01*
X198819Y602527D01*
Y604701D01*
X197987Y606710D01*
X197563Y608842D01*
X196354Y610651D01*
X195522Y612659D01*
X193985Y614197D01*
X192777Y616005D01*
X190969Y617213D01*
X189431Y618751D01*
X187422Y619583D01*
X185614Y620791D01*
X183482Y621215D01*
X181472Y622047D01*
X179298D01*
X177165Y622471D01*
X175033Y622047D01*
X172858D01*
X170849Y621215D01*
X168717Y620791D01*
X166909Y619583D01*
X164900Y618751D01*
X163362Y617213D01*
X161554Y616005D01*
X160346Y614197D01*
X158809Y612659D01*
X157976Y610650D01*
X156768Y608842D01*
X156344Y606710D01*
X156174Y606299D01*
X128337D01*
X128049Y606492D01*
X124399Y609761D01*
X122858Y611761D01*
X120065Y617737D01*
X119147Y622047D01*
X119247Y622548D01*
X120074Y624545D01*
Y626706D01*
X120501Y628850D01*
X121136Y632591D01*
X134175Y643701D01*
X149606D01*
Y647091D01*
X155193Y652622D01*
X165354Y658634D01*
X170276Y657986D01*
X178806Y659109D01*
X186755Y662402D01*
X193581Y667639D01*
X198819Y674465D01*
X199040Y675000D01*
X210630Y685039D01*
X230315D01*
Y708661D01*
X236221D01*
Y714567D01*
X265013D01*
X271654Y722441D01*
X328740D01*
Y748031D01*
Y773622D01*
X311332D01*
Y789370D01*
X324803D01*
Y797920D01*
X423228D01*
Y789370D01*
D02*
G37*
G36*
X480315Y627953D02*
X482283Y613020D01*
X482283Y-77756D01*
Y-245079D01*
X482283Y-395625D01*
X481148Y-401329D01*
X478923Y-406703D01*
X475691Y-411539D01*
X471578Y-415652D01*
X466742Y-418884D01*
X461368Y-421109D01*
X455664Y-422244D01*
X305118D01*
X286417Y-403543D01*
X255905D01*
X236220Y-422244D01*
X-135156D01*
X-142135Y-416741D01*
X-147638Y-409762D01*
Y-392716D01*
X-147827Y-390796D01*
X-149297Y-387248D01*
X-152012Y-384533D01*
X-155560Y-383063D01*
X-157480Y-382874D01*
Y-364173D01*
X-147638Y-354331D01*
X-78740Y-354331D01*
X-44718Y-320308D01*
X-36406Y-311996D01*
X-24085Y-320270D01*
X-23625Y-320729D01*
X-16463Y-325515D01*
X-8014Y-327196D01*
X57366D01*
X65815Y-325515D01*
X72978Y-320729D01*
X84509Y-309198D01*
X89295Y-302036D01*
X90975Y-293587D01*
Y-293307D01*
X110236D01*
Y-287826D01*
X118110D01*
X120243Y-287401D01*
X122417D01*
X124426Y-286569D01*
X126559Y-286145D01*
X128367Y-284937D01*
X130376Y-284105D01*
X131913Y-282567D01*
X133721Y-281359D01*
X134930Y-279551D01*
X136467Y-278014D01*
X137299Y-276005D01*
X138507Y-274197D01*
X138931Y-272064D01*
X139764Y-270055D01*
Y-267881D01*
X140188Y-265748D01*
X139764Y-263615D01*
Y-261441D01*
X138931Y-259432D01*
X138507Y-257299D01*
X137299Y-255491D01*
X136467Y-253482D01*
X134930Y-251945D01*
X133721Y-250137D01*
X131913Y-248929D01*
X130376Y-247391D01*
X128367Y-246559D01*
X126559Y-245351D01*
X124426Y-244927D01*
X122417Y-244095D01*
X121907D01*
X110236Y-234252D01*
Y-212599D01*
X78740D01*
X47244D01*
Y-226040D01*
X44630Y-235412D01*
X33942Y-240157D01*
X25590D01*
Y-265748D01*
X13780D01*
Y-240157D01*
X5906D01*
Y-210630D01*
Y-173228D01*
X13780D01*
Y-147638D01*
X25590D01*
Y-173228D01*
X40194D01*
X42367Y-178474D01*
X47244Y-183351D01*
Y-200788D01*
X78740D01*
X110236D01*
Y-187138D01*
X112053D01*
X119288Y-184141D01*
X124826Y-178603D01*
X130477Y-177479D01*
X142026Y-189028D01*
Y-216536D01*
X143202Y-222450D01*
X146552Y-227463D01*
X156395Y-237306D01*
X161409Y-240656D01*
X167323Y-241832D01*
X188976D01*
Y-297244D01*
X232283D01*
X244094Y-297244D01*
X259842Y-297244D01*
X303149D01*
Y-297244D01*
X311024Y-291339D01*
X368110D01*
Y-265748D01*
Y-240157D01*
X311024D01*
X303149Y-234252D01*
Y-234252D01*
X259842D01*
X250538Y-234252D01*
X257716Y-218504D01*
X303149D01*
Y-218504D01*
X311024Y-212598D01*
X368110D01*
Y-187008D01*
Y-161417D01*
X311024D01*
X303149Y-155512D01*
Y-155512D01*
X259842D01*
X243746Y-155512D01*
X242245Y-153543D01*
X249979Y-137795D01*
X257214Y-134798D01*
X262751Y-129261D01*
X265748Y-122026D01*
Y-114195D01*
X278708Y-104331D01*
X309055D01*
X314248Y-116717D01*
X315457Y-118525D01*
X316289Y-120534D01*
X317826Y-122071D01*
X319034Y-123879D01*
X320842Y-125087D01*
X322380Y-126625D01*
X324389Y-127457D01*
X326197Y-128665D01*
X328329Y-129089D01*
X330339Y-129921D01*
X332513D01*
X334646Y-130345D01*
X336778Y-129921D01*
X338953D01*
X340962Y-129089D01*
X343094Y-128665D01*
X344902Y-127457D01*
X346911Y-126625D01*
X348449Y-125087D01*
X350257Y-123879D01*
X351465Y-122071D01*
X353002Y-120534D01*
X353835Y-118525D01*
X355043Y-116717D01*
X355467Y-114584D01*
X356299Y-112575D01*
Y-110400D01*
X356723Y-108268D01*
Y-104331D01*
X397638D01*
Y-99755D01*
X399628Y-98425D01*
X407459D01*
X414694Y-95428D01*
X420231Y-89891D01*
X423228Y-82656D01*
Y-74825D01*
X420231Y-67590D01*
X414694Y-62052D01*
X407459Y-59055D01*
X399628D01*
X397638Y-56904D01*
Y-53150D01*
X394166D01*
X389181Y-47760D01*
X388294Y-43298D01*
X384944Y-38285D01*
X378925Y-32266D01*
X384951Y-17716D01*
X402559D01*
Y-5905D01*
X375984D01*
Y5906D01*
X402559D01*
Y11881D01*
X407481Y25591D01*
X427165D01*
Y49212D01*
X433071D01*
Y55118D01*
X458661D01*
Y64961D01*
Y112205D01*
X451240D01*
Y179744D01*
X449559Y188193D01*
X444773Y195356D01*
X408578Y231551D01*
X401415Y236337D01*
X392966Y238017D01*
X284837D01*
X276389Y236337D01*
X269226Y231551D01*
X238462Y200787D01*
X190945D01*
Y153543D01*
Y127947D01*
X171260D01*
Y131890D01*
X147638D01*
Y137795D01*
X141732D01*
Y163386D01*
X130345D01*
Y177165D01*
X129921Y179298D01*
Y181472D01*
X129089Y183482D01*
X128665Y185614D01*
X127457Y187422D01*
X126625Y189431D01*
X125087Y190969D01*
X123879Y192777D01*
X122071Y193985D01*
X120533Y195522D01*
X118525Y196354D01*
X116716Y197562D01*
X114584Y197987D01*
X112575Y198819D01*
X112411D01*
X105882Y202065D01*
X100877Y207987D01*
X99952Y209600D01*
X98552Y213368D01*
X98944Y216642D01*
X106299Y218504D01*
X106299Y218504D01*
X169291D01*
Y261811D01*
X169291Y273622D01*
X169292D01*
Y277559D01*
X169291D01*
Y299213D01*
X137795D01*
Y305118D01*
X131890D01*
Y332677D01*
X106299D01*
X104331Y318898D01*
X84646D01*
Y295276D01*
X72835D01*
Y318898D01*
X53150D01*
X47244Y332200D01*
Y360034D01*
X47446Y360236D01*
X51551D01*
X59510Y363533D01*
X65601Y369624D01*
X68898Y377583D01*
Y386197D01*
X65601Y394156D01*
X59510Y400247D01*
X58686Y400588D01*
X53998Y417805D01*
X54073Y418247D01*
X59055Y423228D01*
Y462598D01*
X49213Y472441D01*
X41339D01*
Y503231D01*
X55325Y509406D01*
X68898Y501649D01*
Y478346D01*
X88583D01*
Y501969D01*
X100394D01*
Y478346D01*
X135827D01*
Y501969D01*
X147638D01*
Y478346D01*
X167323D01*
Y507367D01*
X169291Y508617D01*
X185039Y499962D01*
Y474410D01*
X210630D01*
Y501969D01*
X222441D01*
Y474410D01*
X240157D01*
Y470473D01*
X305118D01*
X305118Y470473D01*
X319381Y466887D01*
X320866Y464147D01*
Y448819D01*
X344488D01*
Y442913D01*
X350394D01*
Y417323D01*
X407480D01*
Y468504D01*
X420782Y474410D01*
X427165D01*
Y501968D01*
X433071D01*
Y507874D01*
X464567D01*
Y517717D01*
X464567Y529528D01*
X464567Y545276D01*
Y588583D01*
X455149D01*
Y610236D01*
X455017Y610898D01*
X455686Y611567D01*
X459602Y617428D01*
X460977Y624340D01*
Y627953D01*
X480315D01*
D02*
G37*
G36*
X-204431Y468008D02*
Y415881D01*
X-220179Y409358D01*
X-220371Y409550D01*
X-225385Y412900D01*
X-231299Y414076D01*
X-244095D01*
Y420276D01*
Y441929D01*
X-287402D01*
Y453740D01*
X-244095D01*
Y481593D01*
X-218015D01*
X-204431Y468008D01*
D02*
G37*
G36*
X-63362Y340551D02*
X-60915D01*
X-47244Y327911D01*
Y306848D01*
X-47244Y302953D01*
X-44291Y288428D01*
Y281496D01*
X0D01*
Y269685D01*
X-44291D01*
Y262753D01*
X-47244Y248228D01*
X-55426Y234155D01*
X-61340Y232979D01*
X-64925Y230584D01*
X-70497Y231930D01*
X-80673Y237581D01*
Y331973D01*
X-79776Y333112D01*
X-64924Y341198D01*
X-63362Y340551D01*
D02*
G37*
G36*
X407084Y170599D02*
Y149701D01*
X402559Y135827D01*
X349409D01*
X342520Y148721D01*
Y166339D01*
X342520D01*
X341968Y167165D01*
X344488Y173250D01*
Y181081D01*
X356240Y193862D01*
X383821D01*
X407084Y170599D01*
D02*
G37*
%LPC*%
G36*
X449803Y892716D02*
X423228D01*
Y874016D01*
X449803D01*
Y892716D01*
D02*
G37*
G36*
X324803D02*
X298228D01*
Y874016D01*
X324803D01*
Y892716D01*
D02*
G37*
G36*
X-259842D02*
X-286417D01*
Y874016D01*
X-259842D01*
Y892716D01*
D02*
G37*
G36*
X-298228D02*
X-324803D01*
Y874016D01*
X-298228D01*
Y892716D01*
D02*
G37*
G36*
X-423228D02*
X-449803D01*
Y874016D01*
X-423228D01*
Y892716D01*
D02*
G37*
G36*
X-389764Y773622D02*
X-407480D01*
Y753937D01*
X-389764D01*
Y773622D01*
D02*
G37*
G36*
Y742126D02*
X-407480D01*
Y722441D01*
X-389764D01*
Y742126D01*
D02*
G37*
G36*
X-330709Y640748D02*
X-395669D01*
Y593504D01*
X-330709D01*
Y640748D01*
D02*
G37*
G36*
X-161417Y604331D02*
X-181102D01*
Y586614D01*
X-161417D01*
Y604331D01*
D02*
G37*
G36*
X-192913D02*
X-212598D01*
Y586614D01*
X-192913D01*
Y604331D01*
D02*
G37*
G36*
X358268Y773622D02*
X340551D01*
Y753937D01*
X358268D01*
Y773622D01*
D02*
G37*
G36*
Y742126D02*
X340551D01*
Y722441D01*
X358268D01*
Y742126D01*
D02*
G37*
G36*
X261811Y702756D02*
X242126D01*
Y685039D01*
X255905D01*
X261811Y685039D01*
X271654Y673368D01*
Y665354D01*
X289370D01*
Y685039D01*
X277559D01*
X271654Y685039D01*
X261811Y696710D01*
Y702756D01*
D02*
G37*
G36*
X289370Y653543D02*
X271654D01*
Y633858D01*
X289370D01*
Y653543D01*
D02*
G37*
G36*
X464567Y496063D02*
X438976D01*
Y474410D01*
X464567D01*
Y496063D01*
D02*
G37*
G36*
X338583Y437008D02*
X320866D01*
Y417323D01*
X338583D01*
Y437008D01*
D02*
G37*
G36*
X169291Y332677D02*
X143701D01*
Y311024D01*
X169291D01*
Y332677D01*
D02*
G37*
G36*
X171260Y163386D02*
X153543D01*
Y143701D01*
X171260D01*
Y163386D01*
D02*
G37*
G36*
X458661Y43307D02*
X438976D01*
Y25591D01*
X458661D01*
Y43307D01*
D02*
G37*
G36*
X379921Y-161417D02*
Y-181102D01*
X397638D01*
Y-161417D01*
X379921D01*
D02*
G37*
G36*
X397638Y-192913D02*
X379921D01*
Y-212598D01*
X397638D01*
Y-192913D01*
D02*
G37*
G36*
X379921Y-240157D02*
Y-259842D01*
X397638D01*
Y-240157D01*
X379921D01*
D02*
G37*
G36*
X397638Y-271653D02*
X379921D01*
Y-291339D01*
X397638D01*
Y-271653D01*
D02*
G37*
%LPD*%
D10*
X-98425Y-324803D02*
G03*
X-68898Y-295276I0J29527D01*
G01*
X-157480Y-324803D02*
G03*
X-183071Y-350394I0J-25590D01*
G01*
X-68898Y-147638D02*
Y-94488D01*
X-157480Y-324803D02*
X-98425D01*
X-68898Y-295276D02*
Y-265748D01*
X-183071Y-500000D02*
Y-350394D01*
X-68898Y-265748D02*
Y-226378D01*
Y-187008D02*
Y-147638D01*
D11*
X0Y275591D02*
D03*
D12*
X-29527Y218701D02*
D03*
X-9842D02*
D03*
X9843D02*
D03*
X29528D02*
D03*
X-29527Y332480D02*
D03*
X-9842D02*
D03*
X9843D02*
D03*
X29528D02*
D03*
D13*
X413386Y748032D02*
D03*
X452756D02*
D03*
X295276D02*
D03*
X334646D02*
D03*
X98425Y580709D02*
D03*
X137795D02*
D03*
X19685Y-265748D02*
D03*
X-19685D02*
D03*
X19685Y-147638D02*
D03*
X-19685D02*
D03*
X147638Y137795D02*
D03*
X108268D02*
D03*
X-108268Y-265748D02*
D03*
X-68898D02*
D03*
X-108268Y-147638D02*
D03*
X-68898D02*
D03*
X285433Y-78740D02*
D03*
X246063D02*
D03*
X334646D02*
D03*
X374016D02*
D03*
X-295276Y748032D02*
D03*
X-334646D02*
D03*
X-413386D02*
D03*
X-452756D02*
D03*
X374016Y-187008D02*
D03*
X334646D02*
D03*
X374016Y-265748D02*
D03*
X334646D02*
D03*
X295276Y659449D02*
D03*
X334646D02*
D03*
X344488Y442913D02*
D03*
X383858D02*
D03*
D14*
X455709Y813976D02*
D03*
X292323D02*
D03*
X455709Y898622D02*
D03*
X292323D02*
D03*
X-455709D02*
D03*
X-292323D02*
D03*
X-455709Y813976D02*
D03*
X-292323D02*
D03*
D15*
X275591Y-187008D02*
D03*
X216535D02*
D03*
X275591Y-265748D02*
D03*
X216535D02*
D03*
X393701Y659449D02*
D03*
X452756D02*
D03*
D16*
X-183071Y-500000D02*
D03*
D17*
X273622Y-518898D02*
D03*
D18*
X230315Y-606299D02*
D03*
X45276D02*
D03*
D19*
X187008Y-544488D02*
D03*
X88583D02*
D03*
X1968D02*
D03*
X-96457D02*
D03*
D20*
X137795Y-502362D02*
D03*
X-47244D02*
D03*
D21*
X-185039Y-606299D02*
D03*
D22*
X-265748Y-500000D02*
D03*
D23*
X94488Y501969D02*
D03*
Y541339D02*
D03*
X141732Y501969D02*
D03*
Y541339D02*
D03*
X-19685Y-226378D02*
D03*
Y-187008D02*
D03*
X-147638Y-98425D02*
D03*
Y-59055D02*
D03*
X147638Y-78740D02*
D03*
Y-39370D02*
D03*
X78740Y295276D02*
D03*
Y255905D02*
D03*
X-68898Y-226378D02*
D03*
Y-187008D02*
D03*
X-187008Y157480D02*
D03*
Y118110D02*
D03*
X216535Y177165D02*
D03*
Y137795D02*
D03*
X-216536Y-59055D02*
D03*
Y-98425D02*
D03*
X-265748Y157480D02*
D03*
Y118110D02*
D03*
X-265748Y-19685D02*
D03*
Y19685D02*
D03*
Y-59055D02*
D03*
Y-98425D02*
D03*
X236220Y748032D02*
D03*
Y708661D02*
D03*
Y856299D02*
D03*
Y895669D02*
D03*
X433071Y49213D02*
D03*
Y88583D02*
D03*
X216535Y68898D02*
D03*
Y29527D02*
D03*
X-187008Y580709D02*
D03*
Y541338D02*
D03*
D24*
X375984Y118110D02*
D03*
Y98425D02*
D03*
Y78740D02*
D03*
Y59055D02*
D03*
Y39370D02*
D03*
Y19685D02*
D03*
Y0D02*
D03*
X273622D02*
D03*
Y19685D02*
D03*
Y39370D02*
D03*
Y59055D02*
D03*
Y78740D02*
D03*
Y98425D02*
D03*
Y118110D02*
D03*
D25*
X324803Y-21654D02*
D03*
Y139764D02*
D03*
D26*
X-167323Y-206693D02*
D03*
Y-265748D02*
D03*
X78740Y-206693D02*
D03*
Y-265748D02*
D03*
X137795Y305118D02*
D03*
Y246063D02*
D03*
X433071Y501969D02*
D03*
Y561024D02*
D03*
X216535Y501969D02*
D03*
Y561024D02*
D03*
D27*
X-401575Y298228D02*
D03*
Y646653D02*
D03*
D28*
X-287402Y398622D02*
D03*
Y447834D02*
D03*
Y497047D02*
D03*
Y546260D02*
D03*
D29*
X0Y0D02*
D03*
D30*
X-94488Y-68898D02*
D03*
Y-49213D02*
D03*
Y-29528D02*
D03*
Y-9842D02*
D03*
Y9842D02*
D03*
Y29528D02*
D03*
Y49213D02*
D03*
Y68898D02*
D03*
X94488D02*
D03*
Y49213D02*
D03*
Y29528D02*
D03*
Y9842D02*
D03*
Y-9842D02*
D03*
Y-29528D02*
D03*
Y-49213D02*
D03*
Y-68898D02*
D03*
D31*
X-68898Y94488D02*
D03*
X-49213D02*
D03*
X-29528D02*
D03*
X-9842D02*
D03*
X9842D02*
D03*
X29528D02*
D03*
X49213D02*
D03*
X68898D02*
D03*
Y-94488D02*
D03*
X49213D02*
D03*
X29528D02*
D03*
X9842D02*
D03*
X-9842D02*
D03*
X-29528D02*
D03*
X-49213D02*
D03*
X-68898D02*
D03*
D32*
X94488Y685039D02*
D03*
X125984D02*
D03*
X-125984D02*
D03*
X-94488D02*
D03*
D33*
X68898D02*
D03*
X49213D02*
D03*
X29528D02*
D03*
X-68898D02*
D03*
X-49213D02*
D03*
X-29528D02*
D03*
X-9842D02*
D03*
X9842D02*
D03*
D34*
X-345472Y-75787D02*
D03*
Y-2953D02*
D03*
X-402559Y-75787D02*
D03*
Y-2953D02*
D03*
D35*
X-57087Y486220D02*
D03*
X-19685D02*
D03*
X17716D02*
D03*
Y576772D02*
D03*
X-19685D02*
D03*
X-57087D02*
D03*
X-263780Y230315D02*
D03*
X-226378D02*
D03*
X-188976D02*
D03*
Y320866D02*
D03*
X-226378D02*
D03*
X-263780D02*
D03*
D36*
X272638Y568898D02*
D03*
Y531496D02*
D03*
Y494095D02*
D03*
X376968D02*
D03*
Y568898D02*
D03*
D37*
X-75037Y389409D02*
X-15546D01*
X9843Y364020D01*
X-96127Y368318D02*
X-75037Y389409D01*
X-96127Y144862D02*
Y368318D01*
X9843Y184932D02*
Y218701D01*
X39485Y128812D02*
Y155290D01*
X9843Y184932D02*
X39485Y155290D01*
X29528Y94488D02*
Y118855D01*
X39485Y128812D01*
X-40364Y147937D02*
Y181546D01*
X-29528Y94488D02*
Y137100D01*
X-40364Y147937D02*
X-29528Y137100D01*
X-40364Y181546D02*
X-32444Y189466D01*
X-13763D01*
X-66706Y143623D02*
Y207422D01*
X-49213Y94488D02*
Y126130D01*
X-66706Y143623D02*
X-49213Y126130D01*
X-55426Y218701D02*
X-29527D01*
X-66706Y207422D02*
X-55426Y218701D01*
X-68898Y94488D02*
Y117632D01*
X-96127Y144862D02*
X-68898Y117632D01*
X-10289Y344935D02*
X-9842Y344488D01*
X-57300Y363960D02*
X-17933D01*
X-10289Y356316D01*
Y344935D02*
Y356316D01*
X-59055Y362205D02*
X-57300Y363960D01*
X-13763Y189466D02*
X-9843Y193387D01*
Y218701D01*
X-10827Y95472D02*
X-9842Y94488D01*
X-10827Y95472D02*
Y164370D01*
X29528Y344488D02*
Y364173D01*
X47244Y381890D01*
X9843Y332480D02*
Y364020D01*
X-292323Y813976D02*
X-284449D01*
X-452756D02*
X-292323D01*
X-295276Y811024D02*
X-292323Y813976D01*
X-295276Y748032D02*
Y811024D01*
Y722425D02*
Y748032D01*
X-452756Y746432D02*
Y813976D01*
X-39370Y816929D02*
X196850D01*
X225787Y845866D01*
X-68898Y787402D02*
X-39370Y816929D01*
X225787Y845866D02*
Y847835D01*
X234252Y856299D01*
X236220D01*
X94973Y787402D02*
X194882D01*
X234252Y748032D01*
X236220D01*
X452756Y811024D02*
X455709Y813976D01*
X299335Y118110D02*
X312731Y104715D01*
X273622Y118110D02*
X299335D01*
X312731Y87702D02*
Y104715D01*
Y87702D02*
X329744Y70689D01*
Y46447D02*
Y70689D01*
X302982Y19685D02*
X329744Y46447D01*
X285433Y-57468D02*
X290076Y-52825D01*
X314914D02*
X324803Y-42936D01*
X290076Y-52825D02*
X314914D01*
X157480Y-216536D02*
X167323Y-226378D01*
X157480Y-216536D02*
Y-182627D01*
X92662Y-117809D02*
X157480Y-182627D01*
X-183071Y-501969D02*
Y-500000D01*
X-345472Y-103363D02*
Y-77756D01*
X-304134Y-107284D02*
X-295276Y-98425D01*
X-345472Y-103363D02*
X-341552Y-107284D01*
X-304134D01*
X-295276Y-98425D02*
X-265748D01*
X16453Y134572D02*
Y139153D01*
X9842Y127961D02*
X16453Y134572D01*
X9842Y94488D02*
Y127961D01*
X133471Y39113D02*
X138052D01*
X123886Y29528D02*
X133471Y39113D01*
X94488Y29528D02*
X123886D01*
X94488Y9842D02*
X168770D01*
X178612Y0D01*
X9842Y685039D02*
Y722097D01*
X-29528D02*
X-25607Y726017D01*
X5922D01*
X9842Y722097D01*
X-29528Y685039D02*
Y722097D01*
X-68898Y685039D02*
Y787402D01*
X-295276Y722425D02*
X-281512Y708661D01*
X-255905D01*
X49213Y741641D02*
X94973Y787402D01*
X49213Y685039D02*
Y741641D01*
X-383858Y68898D02*
X-285433D01*
X-402559Y50197D02*
X-383858Y68898D01*
X-402559Y-2953D02*
Y50197D01*
X-345472Y-77756D02*
X-333071Y-90157D01*
X-345472Y-77756D02*
Y-75787D01*
X-285433Y68898D02*
X-265748Y49213D01*
Y-500000D02*
Y-413386D01*
X-12008Y641732D02*
X23048D01*
X26969Y645653D01*
Y682480D01*
X-12008Y641732D02*
Y682874D01*
Y613566D02*
Y641732D01*
X26969Y682480D02*
X29528Y685039D01*
X-126592Y129291D02*
Y135078D01*
Y129291D02*
X-122104Y124803D01*
X-114505D01*
X-110017Y120315D01*
Y106850D02*
Y120315D01*
X-114505Y102362D02*
X-110017Y106850D01*
X-122104Y102362D02*
X-114505D01*
X-126592Y97874D02*
X-122104Y102362D01*
X-126592Y74667D02*
Y97874D01*
Y74667D02*
X-124011Y72086D01*
X-126592Y135078D02*
Y385219D01*
X-124011Y72086D02*
X-118657Y66732D01*
X272638Y494095D02*
X313009D01*
X316929Y498015D02*
Y564977D01*
X272638Y568898D02*
X313009D01*
Y494095D02*
X316929Y498015D01*
X313009Y568898D02*
X316929Y564977D01*
X302982Y-11979D02*
Y19685D01*
X273622Y19685D02*
X302982D01*
X302982Y19685D01*
X226378Y-78740D02*
X246063D01*
X216535Y-68898D02*
X226378Y-78740D01*
X216535Y-68898D02*
Y-29528D01*
X206693Y-19685D02*
X216535Y-29528D01*
X171974Y-19685D02*
X206693D01*
X237598Y-68307D02*
X246063Y-76772D01*
Y-78740D02*
Y-76772D01*
X285433Y-29528D02*
X302982Y-11979D01*
X-231299Y398622D02*
X-226378Y393701D01*
X-287402Y398622D02*
X-231299D01*
X-226378Y368094D02*
Y393701D01*
X-230299Y364173D02*
X-226378Y368094D01*
X-255905Y364173D02*
X-230299D01*
X216535Y-187008D02*
Y-157864D01*
X145131Y-145133D02*
X203805D01*
X216535Y-157864D01*
X94488Y-94491D02*
X145131Y-145133D01*
X114396Y-49213D02*
X121373Y-56189D01*
Y-94389D02*
X152099Y-125115D01*
X121373Y-94389D02*
Y-56189D01*
X83885Y-160926D02*
Y-149044D01*
Y-160926D02*
X89146Y-166187D01*
X106873D01*
X108138Y-167453D01*
X49327Y-114487D02*
X83885Y-149044D01*
X49327Y-114487D02*
Y-94603D01*
X72818Y-117809D02*
X92662D01*
X68898Y-113888D02*
Y-94488D01*
Y-113888D02*
X72818Y-117809D01*
X167323Y-226378D02*
X209128D01*
X216535Y-233785D01*
Y-265748D02*
Y-233785D01*
X94488Y-94491D02*
Y-68898D01*
X152099Y-125115D02*
X219373D01*
X226378Y-118110D01*
X246063D01*
X56195Y-164462D02*
Y-143978D01*
Y-164462D02*
X59055Y-167323D01*
X29528Y-117311D02*
Y-94488D01*
Y-117311D02*
X56195Y-143978D01*
X94488Y-49213D02*
X114396D01*
X-287402Y497047D02*
X-211614D01*
X-188976Y320866D02*
Y474410D01*
X-211614Y497047D02*
X-188976Y474410D01*
X-263780Y356299D02*
X-255905Y364173D01*
X-263780Y320866D02*
Y356299D01*
X178612Y0D02*
X273622D01*
X162131Y-9842D02*
X171974Y-19685D01*
X324803Y139764D02*
Y177165D01*
X94488Y-9842D02*
X162131D01*
X374016Y-78740D02*
X403543D01*
X273622Y118110D02*
Y129921D01*
X265748Y137795D02*
X273622Y129921D01*
X216535Y137795D02*
X265748D01*
X345989Y-21185D02*
Y31028D01*
Y-21185D02*
X374016Y-49212D01*
X345989Y31028D02*
X354331Y39370D01*
X374016Y-78740D02*
Y-49212D01*
X354331Y39370D02*
X375984D01*
X285433Y-78740D02*
Y-57468D01*
X324803Y-42936D02*
Y-21654D01*
X285433Y-78740D02*
X285433Y-78740D01*
X-216535Y49213D02*
Y98425D01*
Y49213D02*
X-177165Y9842D01*
X-236220Y118110D02*
X-216535Y98425D01*
X-265748Y118110D02*
X-236220D01*
X-177165Y9842D02*
X-94488D01*
X-157480Y29528D02*
X-94488D01*
X-187008Y59055D02*
X-157480Y29528D01*
X-125017Y51378D02*
X-108662D01*
X-96063Y50787D02*
X-94488Y49213D01*
X-118657Y66732D02*
X-108662D01*
X-108071Y50787D02*
X-96063D01*
X-141946Y68307D02*
X-125017Y51378D01*
X-108662D02*
X-108071Y50787D01*
X-96063Y67323D02*
X-94488Y68898D01*
X-108071Y67323D02*
X-96063D01*
X-108662Y66732D02*
X-108071Y67323D01*
X-187008Y59055D02*
Y118110D01*
X-188976Y159449D02*
Y230315D01*
Y159449D02*
X-187008Y157480D01*
X-263780Y159449D02*
Y230315D01*
X-265748Y157480D02*
X-263780Y159449D01*
X-265748Y19685D02*
X-265748Y19685D01*
Y49213D01*
X-141946Y68307D02*
Y391579D01*
X-104785Y428740D01*
X-126592Y385219D02*
X-98425Y413386D01*
X-31283Y609646D02*
X-27362Y613566D01*
X-36024Y609646D02*
X-31283D01*
X-27362Y613566D02*
Y682874D01*
X-57087Y588583D02*
X-36024Y609646D01*
X-57087Y576772D02*
Y588583D01*
X-29528Y685039D02*
X-27362Y682874D01*
X-12008D02*
X-9842Y685039D01*
X-3346Y609646D02*
X17716Y588583D01*
Y576772D02*
Y588583D01*
X-12008Y613566D02*
X-8087Y609646D01*
X-3346D01*
X-41535Y428740D02*
X-27362Y442913D01*
X-104785Y428740D02*
X-41535D01*
X-35175Y413386D02*
X-12008Y436553D01*
X-98425Y413386D02*
X-35175D01*
X-206693Y-9842D02*
X-94488D01*
X-236220Y19685D02*
X-206693Y-9842D01*
X-206693Y-29528D02*
X-94488D01*
X-216536Y-39370D02*
X-206693Y-29528D01*
X-12008Y436553D02*
Y449426D01*
X-36024Y453346D02*
X-31283D01*
X-27362Y442913D02*
Y449426D01*
X-31283Y453346D02*
X-27362Y449426D01*
X17716Y474409D02*
Y486220D01*
X-12008Y449426D02*
X-8087Y453346D01*
X-3346D01*
X17716Y474409D01*
X-57087D02*
Y486220D01*
Y474409D02*
X-36024Y453346D01*
X273622Y19685D02*
X275591Y21654D01*
X-265748Y-98425D02*
X-216536D01*
X-265748Y19685D02*
X-236220D01*
X-216536Y-59055D02*
Y-39370D01*
D38*
X-62992Y275591D02*
X42888D01*
X55794Y288497D02*
X71961D01*
X42888Y275591D02*
X55794Y288497D01*
X71961D02*
X78740Y295276D01*
X49213Y112986D02*
X64993Y128766D01*
Y143521D01*
X49213Y94488D02*
Y112986D01*
X-19685Y-147638D02*
X-19685Y-147638D01*
Y-187008D02*
Y-147638D01*
X-29528Y-137795D02*
X-19685Y-147638D01*
X145669Y-39370D02*
X147638D01*
X135827Y-29528D02*
X145669Y-39370D01*
X94488Y-29528D02*
X135827D01*
X-154528Y-65945D02*
X-147638Y-59055D01*
X-29528Y-121063D02*
Y-94488D01*
Y-137795D02*
Y-121063D01*
X-49213Y-115297D02*
X-43447Y-121063D01*
X-29528D01*
X-49213Y-115297D02*
Y-94488D01*
X-118110Y-68898D02*
X-94488D01*
X-127953Y-59055D02*
X-118110Y-68898D01*
X-127953Y-59055D02*
X-118110Y-49213D01*
X-94488D01*
D39*
X124016Y255905D02*
X133858Y246063D01*
X78740Y255905D02*
X124016D01*
X63272Y216535D02*
X74803Y228067D01*
X51181Y216535D02*
X63272D01*
X51181D02*
X64993Y202724D01*
X74803Y228067D02*
Y253937D01*
X76772Y255905D01*
X78740D01*
X34792Y216535D02*
X51181D01*
X64993Y167290D02*
Y202724D01*
X-61486Y324341D02*
X-55918D01*
X-55772Y324487D02*
X-33662D01*
X-55918Y324341D02*
X-55772Y324487D01*
X-62992Y322835D02*
X-61486Y324341D01*
X429162Y90551D02*
Y179744D01*
X284837Y215940D02*
X392966D01*
X429162Y179744D01*
X246063Y177165D02*
X284837Y215940D01*
X431130Y88583D02*
X433071D01*
X429162Y90551D02*
X431130Y88583D01*
X-338583Y897638D02*
X-338091Y898130D01*
X-292815D02*
X-292323Y898622D01*
X-338091Y898130D02*
X-292815D01*
X-409941D02*
X-409449Y897638D01*
X-455709Y898622D02*
X-455216Y898130D01*
X-409941D01*
X409449Y897638D02*
X409941Y898130D01*
X455217D02*
X455709Y898622D01*
X409941Y898130D02*
X455217D01*
X292815D02*
X338091D01*
X292323Y898622D02*
X292815Y898130D01*
X338091D02*
X338583Y897638D01*
X-334646Y716535D02*
Y748032D01*
X236220Y708661D02*
X267716D01*
X334646Y716535D02*
X334646Y716535D01*
X334646Y716535D02*
Y748032D01*
X290847Y897146D02*
X292323Y898622D01*
X236220Y895669D02*
X237697Y897146D01*
X290847D01*
X-411417Y718666D02*
Y746063D01*
X-403543Y708661D02*
Y710792D01*
X-413386Y748032D02*
X-411417Y746063D01*
Y718666D02*
X-403543Y710792D01*
X265748Y659449D02*
X295276D01*
X-147537Y-59156D02*
X-131222D01*
X-147638Y-59055D02*
X-147537Y-59156D01*
X79725Y-205709D02*
X125000D01*
X125984Y-204724D01*
X78740Y-206693D02*
X79725Y-205709D01*
X141732Y541339D02*
X143701Y543307D01*
X143701D01*
X141732Y541339D02*
X141732D01*
X159449Y543307D02*
X177166Y561024D01*
X143701Y543307D02*
X159449D01*
X177165Y600394D02*
X177166Y600394D01*
Y561024D02*
Y600394D01*
X216535Y561024D02*
X222441Y566929D01*
X210630Y555118D02*
X216535Y561024D01*
X216535D01*
X177166D02*
X216535D01*
X433071D02*
Y610236D01*
X108268Y137795D02*
Y177165D01*
Y109957D02*
Y137795D01*
X-183071Y-606299D02*
Y-501969D01*
Y-606299D02*
X-96457D01*
X-185039D02*
X-183071D01*
X-96457Y-544488D02*
Y-502362D01*
Y-606299D02*
Y-544488D01*
X-47244Y-502362D02*
X1968D01*
X-96457D02*
X-47244D01*
X1968Y-606299D02*
Y-544488D01*
Y-502362D01*
X45276Y-606299D02*
X88583D01*
X1968D02*
X45276D01*
X88583Y-544488D02*
Y-502362D01*
Y-606299D02*
Y-544488D01*
X137795Y-502362D02*
X187008D01*
X88583D02*
X137795D01*
X187008Y-606299D02*
Y-544488D01*
Y-502362D01*
Y-606299D02*
X230315D01*
X273622D02*
Y-518898D01*
X230315Y-606299D02*
X273622D01*
X-226378Y580709D02*
X-187008D01*
X-226378Y580709D02*
X-226378Y580709D01*
X94488Y472441D02*
Y501969D01*
X147638Y137795D02*
X177165D01*
X-305118Y-59055D02*
X-265748D01*
X-344488Y5905D02*
Y39370D01*
X-403051Y-82677D02*
X-396653Y-76279D01*
X-403051Y-117618D02*
Y-82677D01*
X-403543Y-118110D02*
X-403051Y-117618D01*
X-265748Y-59055D02*
X-265748Y-59055D01*
X-305118Y-19685D02*
X-265748D01*
X-265748Y-19685D01*
X305118Y442913D02*
X344488D01*
X-236713Y448327D02*
X-236220Y448819D01*
X-286909Y448327D02*
X-236713D01*
X374016Y-187008D02*
X413386D01*
X374016Y-265748D02*
X413386D01*
X-216535D02*
X-167323D01*
X-148622Y-99409D02*
X-147638Y-98425D01*
X-149606Y-137795D02*
X-148622Y-136811D01*
Y-99409D01*
X-109252Y-264764D02*
X-108268Y-265748D01*
X-110236Y-224409D02*
X-109252Y-225394D01*
Y-264764D02*
Y-225394D01*
Y-148622D02*
X-108268Y-147638D01*
X-109252Y-187992D02*
Y-148622D01*
X-110236Y-188976D02*
X-109252Y-187992D01*
X19685Y-265748D02*
Y-224409D01*
Y-188976D02*
Y-147638D01*
X141732Y541339D02*
X143701Y543307D01*
X141732Y472441D02*
Y501969D01*
X96457Y543307D02*
X98425Y541339D01*
X55118Y543027D02*
X92799D01*
X43587Y531496D02*
X55118Y543027D01*
Y614173D01*
X27559Y531496D02*
X43587D01*
X98425Y541339D02*
X98427Y541341D01*
X98425Y541339D02*
X98425D01*
X92799Y543027D02*
X94488Y541339D01*
X55118Y614173D02*
X68290Y627346D01*
X96914D02*
X98421Y628852D01*
X68290Y627346D02*
X96914D01*
X137795Y580709D02*
X139764Y578740D01*
Y543307D02*
Y578740D01*
Y543307D02*
X141732Y541339D01*
X96457Y543307D02*
Y578740D01*
X98425Y580709D01*
X216535Y462598D02*
Y501969D01*
X433071Y462598D02*
Y501969D01*
X378937Y566929D02*
X427165D01*
X433071Y561024D01*
X376968Y568898D02*
X378937Y566929D01*
X220472Y501969D02*
X226378Y507874D01*
Y511811D02*
X244095Y529528D01*
X226378Y507874D02*
Y511811D01*
X244095Y529528D02*
X270669D01*
X216536Y501969D02*
X220472D01*
X270669Y529528D02*
X272638Y531496D01*
X270669Y566929D02*
X272638Y568898D01*
X222441Y566929D02*
X270669D01*
X381890Y494095D02*
X383858Y492126D01*
Y442913D02*
Y492126D01*
X376968Y494095D02*
X381890D01*
X137795Y305118D02*
Y344488D01*
X137795Y580709D02*
X137795Y580709D01*
X137795Y628856D02*
X137795Y628856D01*
X98421Y628852D02*
X98423Y628850D01*
X94488Y685039D02*
X96457Y683071D01*
X137795Y629921D02*
Y632052D01*
X96457Y634012D02*
X98421Y632048D01*
X96457Y634012D02*
Y683071D01*
X98421Y629918D02*
Y632048D01*
X127953Y641895D02*
Y683071D01*
X125984Y685039D02*
X127953Y683071D01*
Y641895D02*
X137795Y632052D01*
X-137795D02*
X-127953Y641895D01*
Y683071D02*
X-125984Y685039D01*
X-127953Y641895D02*
Y683071D01*
X-98421Y629918D02*
Y632048D01*
X-96457Y634012D02*
Y683071D01*
X-98421Y632048D02*
X-96457Y634012D01*
X-137795Y629921D02*
Y632052D01*
X-96457Y683071D02*
X-94488Y685039D01*
X-403543Y648622D02*
X-401575Y646653D01*
X-403543Y648622D02*
Y708661D01*
Y296260D02*
X-401575Y298228D01*
X-403543Y236220D02*
Y296260D01*
X-287402Y447834D02*
X-286909Y448327D01*
X175659Y-96919D02*
X177165Y-98425D01*
X167785Y-96919D02*
X175659D01*
X149606Y-78740D02*
X167785Y-96919D01*
X147638Y-78740D02*
X149606D01*
X184877Y-49213D02*
X187008D01*
X177003Y-41339D02*
X184877Y-49213D01*
X149606Y-41339D02*
X177003D01*
X-226378Y187008D02*
Y230315D01*
X-206693Y-206693D02*
X-167323D01*
X78740Y-265748D02*
X78740Y-265748D01*
X118110D01*
X-19685Y-269545D02*
Y-265748D01*
X-8014Y-305118D02*
X57366D01*
X68898Y-293587D01*
Y-271654D02*
X74803Y-265748D01*
X78740D01*
X68898Y-293587D02*
Y-271654D01*
X-19545Y-293587D02*
Y-269685D01*
X-19685Y-269545D02*
X-19545Y-269685D01*
Y-293587D02*
X-8014Y-305118D01*
X-19685Y-265748D02*
X-19685Y-265748D01*
Y-226378D01*
X147638Y-39370D02*
X149606Y-41339D01*
X216535Y177165D02*
X246063D01*
X334646Y-108268D02*
Y-78740D01*
X133858Y246063D02*
X137795D01*
X-177165Y-59055D02*
X-147638D01*
X433071Y49213D02*
X462599D01*
X187008Y29527D02*
X216535D01*
X187008Y68898D02*
X216535D01*
X78740Y295276D02*
Y324803D01*
X73765Y98425D02*
X96736D01*
X108268Y109957D01*
D40*
X64993Y155479D02*
Y167290D01*
X-147638Y541338D02*
X-147638Y541339D01*
X-282480Y541338D02*
X-187008D01*
X-147638D01*
X3937Y531496D02*
X27559D01*
X-299903Y285433D02*
X-290060Y275591D01*
X-299903Y285433D02*
Y342993D01*
X-290060Y275591D02*
X-239540D01*
X-318016Y361106D02*
X-299903Y342993D01*
X-342898Y361106D02*
X-318016D01*
X-364173Y523540D02*
X-341453Y546260D01*
X-364173Y382382D02*
Y523540D01*
X-341453Y546260D02*
X-287402D01*
X-364173Y382382D02*
X-342898Y361106D01*
X-230315Y284816D02*
Y316929D01*
X-239540Y275591D02*
X-230315Y284816D01*
Y316929D02*
X-226378Y320866D01*
X-287402Y546260D02*
X-282480Y541338D01*
D41*
X64993Y143521D02*
Y155479D01*
X413386Y88583D02*
X433071D01*
Y614498D02*
X442913Y624340D01*
X433071Y610236D02*
Y614498D01*
X442913Y649606D02*
X452756Y659449D01*
X442913Y624340D02*
Y649606D01*
Y669291D02*
Y691828D01*
X413386Y721355D02*
X442913Y691828D01*
X413386Y721355D02*
Y748032D01*
X442913Y669291D02*
X452756Y659449D01*
X334646D02*
X393701D01*
X334646Y659449D02*
X334646Y659449D01*
X-13780Y538415D02*
Y570866D01*
X-6861Y531496D02*
X3937D01*
X-13780Y538415D02*
X-6861Y531496D01*
X-19685Y576772D02*
X-13780Y570866D01*
X-25590Y492126D02*
Y514520D01*
X-39370Y528300D02*
X-25590Y514520D01*
X-39370Y528300D02*
Y531496D01*
X-25590Y492126D02*
X-19685Y486220D01*
X275591Y-265748D02*
X334646D01*
X275591Y-187008D02*
X334646D01*
X344488Y98425D02*
X375984D01*
X409124Y9842D02*
X413386D01*
X375984Y19685D02*
X399282D01*
X409124Y9842D01*
X399282Y0D02*
X409124Y9842D01*
X375984Y0D02*
X399282D01*
X413386Y49213D02*
X433071D01*
X403543Y59055D02*
X413386Y49213D01*
X375984Y59055D02*
X403543D01*
Y78740D02*
X413386Y88583D01*
X375984Y78740D02*
X403543D01*
X216535Y29527D02*
X218504D01*
X228347Y39370D01*
X273622D01*
D42*
X449803Y813976D02*
X452756Y811024D01*
X393701Y813976D02*
X449803D01*
X292323D02*
X393701D01*
Y846457D01*
X452756Y748032D02*
Y811024D01*
X295276Y748032D02*
Y811024D01*
X292323Y813976D02*
X295276Y811024D01*
X273622Y59055D02*
X303150D01*
X111189Y69882D02*
X153197Y111890D01*
X241297D02*
X252808Y100379D01*
X153197Y111890D02*
X241297D01*
X95472Y69882D02*
X111189D01*
X231435Y95089D02*
X246063Y80461D01*
X160622Y95089D02*
X231435D01*
X115323Y49790D02*
X160622Y95089D01*
X95066Y49790D02*
X115323D01*
X94488Y49213D02*
X95066Y49790D01*
X94488Y68898D02*
X95472Y69882D01*
X246063Y63668D02*
Y80461D01*
Y63668D02*
X250675Y59055D01*
X273622D01*
X252808Y100379D02*
X271668D01*
X273622Y98425D01*
D43*
X-433071Y-374016D02*
D03*
D44*
X-114173Y734252D02*
D03*
X114173D02*
D03*
D45*
X170276Y714567D02*
D03*
X-170276D02*
D03*
D46*
Y879921D02*
D03*
X170276D02*
D03*
D47*
X-374016Y787402D02*
D03*
X-141732Y-370079D02*
D03*
X-62992Y275591D02*
D03*
Y322835D02*
D03*
X-59055Y362205D02*
D03*
X47244Y381890D02*
D03*
X-338583Y897638D02*
D03*
X-409449D02*
D03*
X338583D02*
D03*
X-334646Y716535D02*
D03*
X409449Y897638D02*
D03*
X393701Y846457D02*
D03*
X267716Y708661D02*
D03*
X334646Y716535D02*
D03*
X265748Y659449D02*
D03*
X296435Y328562D02*
D03*
X125984Y-204724D02*
D03*
X-118110Y501969D02*
D03*
X-147638Y541339D02*
D03*
X177165Y600394D02*
D03*
Y413386D02*
D03*
X305118Y442913D02*
D03*
X29528Y777559D02*
D03*
X-226378Y748032D02*
D03*
X-39370Y757874D02*
D03*
X216535Y462598D02*
D03*
X-255905Y708661D02*
D03*
X-59055Y885827D02*
D03*
X49213Y905512D02*
D03*
X-98425Y846457D02*
D03*
X98425Y856299D02*
D03*
X-236220D02*
D03*
X344488Y403543D02*
D03*
X413386D02*
D03*
X462598Y413386D02*
D03*
Y314961D02*
D03*
Y216535D02*
D03*
X-344488Y856299D02*
D03*
X-236220Y639764D02*
D03*
X-383858Y570866D02*
D03*
X-374016Y157480D02*
D03*
X-314961Y246063D02*
D03*
Y108268D02*
D03*
X322835Y618110D02*
D03*
X383858Y610236D02*
D03*
X433071Y610236D02*
D03*
X-462598Y561024D02*
D03*
Y472441D02*
D03*
Y383858D02*
D03*
X-403543Y364173D02*
D03*
X-314961Y633858D02*
D03*
X0Y866142D02*
D03*
X118110Y915354D02*
D03*
X-118110D02*
D03*
X-187008Y816929D02*
D03*
X-226378Y580709D02*
D03*
X-147638D02*
D03*
X-157480Y462598D02*
D03*
X55118Y492126D02*
D03*
X94488Y472441D02*
D03*
X177165Y137795D02*
D03*
X108268Y177165D02*
D03*
X-305118Y-59055D02*
D03*
X-462598Y137795D02*
D03*
Y39370D02*
D03*
Y-59055D02*
D03*
X-344488Y39370D02*
D03*
X-403543Y-118110D02*
D03*
X-305118Y-19685D02*
D03*
X216535Y610236D02*
D03*
X462598Y137795D02*
D03*
X187008Y216535D02*
D03*
X413386Y-137795D02*
D03*
X462598D02*
D03*
Y-226378D02*
D03*
X311024Y-224409D02*
D03*
X-236220Y448819D02*
D03*
X246063Y-354331D02*
D03*
X196850Y-403543D02*
D03*
X147638Y-354331D02*
D03*
X98425Y-403543D02*
D03*
X413386Y-187008D02*
D03*
Y-265748D02*
D03*
X-216535D02*
D03*
X-462598Y-157480D02*
D03*
X-265748D02*
D03*
X-364173D02*
D03*
X-244095Y-236220D02*
D03*
X-319808Y-247484D02*
D03*
X-429134Y-204724D02*
D03*
X-462598Y-255905D02*
D03*
X-226378Y-403543D02*
D03*
X-149606Y-137795D02*
D03*
X-110236Y-224409D02*
D03*
Y-188976D02*
D03*
X19685Y-224409D02*
D03*
Y-188976D02*
D03*
X305118Y-403543D02*
D03*
X344488Y-354331D02*
D03*
X49213D02*
D03*
X0Y-403543D02*
D03*
X-421260Y-311024D02*
D03*
X-318898Y-330709D02*
D03*
X-216535Y-322835D02*
D03*
X-265748Y-354331D02*
D03*
X-364173D02*
D03*
X393701Y-305118D02*
D03*
X442913Y-354331D02*
D03*
X393701Y-403543D02*
D03*
X-35433Y-334646D02*
D03*
X-98425Y-403543D02*
D03*
X-314961D02*
D03*
X141732Y472441D02*
D03*
X433071Y462598D02*
D03*
X137795Y344488D02*
D03*
Y628856D02*
D03*
X98421Y628852D02*
D03*
X-98421Y629918D02*
D03*
X-137795Y629921D02*
D03*
X-403543Y708661D02*
D03*
Y236220D02*
D03*
X177165Y-98425D02*
D03*
X187008Y-49213D02*
D03*
X-226378Y187008D02*
D03*
X-206693Y-206693D02*
D03*
X118110Y-265748D02*
D03*
X285433Y-118110D02*
D03*
X364173Y177165D02*
D03*
X440945Y-51181D02*
D03*
X246063Y177165D02*
D03*
X334646Y-108268D02*
D03*
X413386Y9842D02*
D03*
X-177165Y-59055D02*
D03*
X462599Y49213D02*
D03*
X187008Y29527D02*
D03*
Y68898D02*
D03*
X88583Y374016D02*
D03*
X78740Y324803D02*
D03*
D48*
X-10827Y164370D02*
D03*
X303150Y59055D02*
D03*
X16453Y139153D02*
D03*
X138052Y39113D02*
D03*
X-265748Y-411417D02*
D03*
X246063Y-29528D02*
D03*
X285433D02*
D03*
X-39370Y531496D02*
D03*
X108138Y-167453D02*
D03*
X246063Y-118110D02*
D03*
X59055Y-167323D02*
D03*
X49213Y0D02*
D03*
X0Y-49213D02*
D03*
X-49213Y0D02*
D03*
X0Y49213D02*
D03*
X49213Y-49213D02*
D03*
X-49213D02*
D03*
X49213Y49213D02*
D03*
X-49213D02*
D03*
X324803Y177165D02*
D03*
X403543Y-78740D02*
D03*
X344488Y98425D02*
D03*
%TF.MD5,6d84f4b8ec7d264968eada435cd24a3c*%
M02*
