%TF.GenerationSoftware,Altium Limited,Altium Designer,23.2.1 (34)*%
G04 Layer_Color=8388736*
%FSLAX26Y26*%
%MOIN*%
%TF.SameCoordinates,DAB62C51-C882-44BF-9B97-BA74F53622F3*%
%TF.FilePolarity,Negative*%
%TF.FileFunction,Soldermask,Top*%
%TF.Part,Single*%
G01*
G75*
%TA.AperFunction,TestPad*%
G04:AMPARAMS|DCode=34|XSize=35.433mil|YSize=31.496mil|CornerRadius=1.575mil|HoleSize=0mil|Usage=FLASHONLY|Rotation=90.000|XOffset=0mil|YOffset=0mil|HoleType=Round|Shape=RoundedRectangle|*
%AMROUNDEDRECTD34*
21,1,0.035433,0.028346,0,0,90.0*
21,1,0.032283,0.031496,0,0,90.0*
1,1,0.003150,0.014173,0.016142*
1,1,0.003150,0.014173,-0.016142*
1,1,0.003150,-0.014173,-0.016142*
1,1,0.003150,-0.014173,0.016142*
%
%ADD34ROUNDEDRECTD34*%
%TA.AperFunction,SMDPad,CuDef*%
%ADD54R,0.070472X0.015354*%
%ADD55R,0.022047X0.045669*%
%ADD56R,0.029134X0.033071*%
%TA.AperFunction,ConnectorPad*%
%ADD57R,0.046850X0.031102*%
%TA.AperFunction,SMDPad,CuDef*%
%ADD58R,0.037008X0.044882*%
%ADD59R,0.033071X0.029134*%
%ADD60R,0.035039X0.017323*%
%ADD61R,0.017323X0.035039*%
%ADD62R,0.044882X0.037008*%
%ADD63R,0.123622X0.088189*%
%ADD64R,0.068504X0.037008*%
G04:AMPARAMS|DCode=65|XSize=141.339mil|YSize=141.339mil|CornerRadius=9.547mil|HoleSize=0mil|Usage=FLASHONLY|Rotation=270.000|XOffset=0mil|YOffset=0mil|HoleType=Round|Shape=RoundedRectangle|*
%AMROUNDEDRECTD65*
21,1,0.141339,0.122244,0,0,270.0*
21,1,0.122244,0.141339,0,0,270.0*
1,1,0.019094,-0.061122,-0.061122*
1,1,0.019094,-0.061122,0.061122*
1,1,0.019094,0.061122,0.061122*
1,1,0.019094,0.061122,-0.061122*
%
%ADD65ROUNDEDRECTD65*%
G04:AMPARAMS|DCode=66|XSize=13.78mil|YSize=31.496mil|CornerRadius=2.461mil|HoleSize=0mil|Usage=FLASHONLY|Rotation=90.000|XOffset=0mil|YOffset=0mil|HoleType=Round|Shape=RoundedRectangle|*
%AMROUNDEDRECTD66*
21,1,0.013780,0.026575,0,0,90.0*
21,1,0.008858,0.031496,0,0,90.0*
1,1,0.004921,0.013287,0.004429*
1,1,0.004921,0.013287,-0.004429*
1,1,0.004921,-0.013287,-0.004429*
1,1,0.004921,-0.013287,0.004429*
%
%ADD66ROUNDEDRECTD66*%
G04:AMPARAMS|DCode=67|XSize=13.78mil|YSize=31.496mil|CornerRadius=2.461mil|HoleSize=0mil|Usage=FLASHONLY|Rotation=0.000|XOffset=0mil|YOffset=0mil|HoleType=Round|Shape=RoundedRectangle|*
%AMROUNDEDRECTD67*
21,1,0.013780,0.026575,0,0,0.0*
21,1,0.008858,0.031496,0,0,0.0*
1,1,0.004921,0.004429,-0.013287*
1,1,0.004921,-0.004429,-0.013287*
1,1,0.004921,-0.004429,0.013287*
1,1,0.004921,0.004429,0.013287*
%
%ADD67ROUNDEDRECTD67*%
%TA.AperFunction,ConnectorPad*%
%ADD68R,0.034646X0.070079*%
%ADD69R,0.029134X0.064567*%
%ADD70R,0.022835X0.070079*%
%TA.AperFunction,SMDPad,CuDef*%
%ADD71R,0.029134X0.052756*%
%ADD72R,0.046850X0.029134*%
%TA.AperFunction,WasherPad*%
%ADD73C,0.050866*%
%TA.AperFunction,ComponentPad*%
%ADD74C,0.047244*%
%ADD75O,0.043307X0.090551*%
%ADD76O,0.043307X0.078740*%
D34*
X-345472Y-75787D02*
D03*
Y-2953D02*
D03*
X-402559Y-75787D02*
D03*
Y-2953D02*
D03*
D54*
X0Y275591D02*
D03*
D55*
X-29527Y218701D02*
D03*
X-9842D02*
D03*
X9843D02*
D03*
X29528D02*
D03*
X-29527Y332480D02*
D03*
X-9842D02*
D03*
X9843D02*
D03*
X29528D02*
D03*
D56*
X413386Y748032D02*
D03*
X452756D02*
D03*
X295276D02*
D03*
X334646D02*
D03*
X98425Y580709D02*
D03*
X137795D02*
D03*
X19685Y-265748D02*
D03*
X-19685D02*
D03*
X19685Y-147638D02*
D03*
X-19685D02*
D03*
X147638Y137795D02*
D03*
X108268D02*
D03*
X-108268Y-265748D02*
D03*
X-68898D02*
D03*
X-108268Y-147638D02*
D03*
X-68898D02*
D03*
X285433Y-78740D02*
D03*
X246063D02*
D03*
X334646D02*
D03*
X374016D02*
D03*
X-295276Y748032D02*
D03*
X-334646D02*
D03*
X-413386D02*
D03*
X-452756D02*
D03*
X374016Y-187008D02*
D03*
X334646D02*
D03*
X374016Y-265748D02*
D03*
X334646D02*
D03*
X295276Y659449D02*
D03*
X334646D02*
D03*
X344488Y442913D02*
D03*
X383858D02*
D03*
D57*
X455709Y813976D02*
D03*
X292323D02*
D03*
X455709Y898622D02*
D03*
X292323D02*
D03*
X-455709D02*
D03*
X-292323D02*
D03*
X-455709Y813976D02*
D03*
X-292323D02*
D03*
D58*
X275591Y-187008D02*
D03*
X216535D02*
D03*
X275591Y-265748D02*
D03*
X216535D02*
D03*
X393701Y659449D02*
D03*
X452756D02*
D03*
D59*
X94488Y501969D02*
D03*
Y541339D02*
D03*
X141732Y501969D02*
D03*
Y541339D02*
D03*
X-19685Y-226378D02*
D03*
Y-187008D02*
D03*
X-147638Y-98425D02*
D03*
Y-59055D02*
D03*
X147638Y-78740D02*
D03*
Y-39370D02*
D03*
X78740Y295276D02*
D03*
Y255905D02*
D03*
X-68898Y-226378D02*
D03*
Y-187008D02*
D03*
X-187008Y157480D02*
D03*
Y118110D02*
D03*
X216535Y177165D02*
D03*
Y137795D02*
D03*
X-216536Y-59055D02*
D03*
Y-98425D02*
D03*
X-265748Y157480D02*
D03*
Y118110D02*
D03*
X-265748Y-19685D02*
D03*
Y19685D02*
D03*
Y-59055D02*
D03*
Y-98425D02*
D03*
X236220Y748032D02*
D03*
Y708661D02*
D03*
Y856299D02*
D03*
Y895669D02*
D03*
X433071Y49213D02*
D03*
Y88583D02*
D03*
X216535Y68898D02*
D03*
Y29527D02*
D03*
X-187008Y580709D02*
D03*
Y541338D02*
D03*
D60*
X375984Y118110D02*
D03*
Y98425D02*
D03*
Y78740D02*
D03*
Y59055D02*
D03*
Y39370D02*
D03*
Y19685D02*
D03*
Y0D02*
D03*
X273622D02*
D03*
Y19685D02*
D03*
Y39370D02*
D03*
Y59055D02*
D03*
Y78740D02*
D03*
Y98425D02*
D03*
Y118110D02*
D03*
D61*
X324803Y-21654D02*
D03*
Y139764D02*
D03*
D62*
X-167323Y-206693D02*
D03*
Y-265748D02*
D03*
X78740Y-206693D02*
D03*
Y-265748D02*
D03*
X137795Y305118D02*
D03*
Y246063D02*
D03*
X433071Y501969D02*
D03*
Y561024D02*
D03*
X216535Y501969D02*
D03*
Y561024D02*
D03*
D63*
X-401575Y298228D02*
D03*
Y646653D02*
D03*
D64*
X-287402Y398622D02*
D03*
Y447834D02*
D03*
Y497047D02*
D03*
Y546260D02*
D03*
D65*
X0Y0D02*
D03*
D66*
X-94488Y-68898D02*
D03*
Y-49213D02*
D03*
Y-29528D02*
D03*
Y-9842D02*
D03*
Y9842D02*
D03*
Y29528D02*
D03*
Y49213D02*
D03*
Y68898D02*
D03*
X94488D02*
D03*
Y49213D02*
D03*
Y29528D02*
D03*
Y9842D02*
D03*
Y-9842D02*
D03*
Y-29528D02*
D03*
Y-49213D02*
D03*
Y-68898D02*
D03*
D67*
X-68898Y94488D02*
D03*
X-49213D02*
D03*
X-29528D02*
D03*
X-9842D02*
D03*
X9842D02*
D03*
X29528D02*
D03*
X49213D02*
D03*
X68898D02*
D03*
Y-94488D02*
D03*
X49213D02*
D03*
X29528D02*
D03*
X9842D02*
D03*
X-9842D02*
D03*
X-29528D02*
D03*
X-49213D02*
D03*
X-68898D02*
D03*
D68*
X94488Y685039D02*
D03*
X-94488D02*
D03*
D69*
X125984D02*
D03*
X-125984D02*
D03*
D70*
X68898D02*
D03*
X49213D02*
D03*
X29528D02*
D03*
X-68898D02*
D03*
X-49213D02*
D03*
X-29528D02*
D03*
X-9842D02*
D03*
X9842D02*
D03*
D71*
X-57087Y486220D02*
D03*
X-19685D02*
D03*
X17716D02*
D03*
Y576772D02*
D03*
X-19685D02*
D03*
X-57087D02*
D03*
X-263780Y230315D02*
D03*
X-226378D02*
D03*
X-188976D02*
D03*
Y320866D02*
D03*
X-226378D02*
D03*
X-263780D02*
D03*
D72*
X272638Y568898D02*
D03*
Y531496D02*
D03*
Y494095D02*
D03*
X376968D02*
D03*
Y568898D02*
D03*
D73*
X-433071Y-374016D02*
D03*
D74*
X-114173Y734252D02*
D03*
X114173D02*
D03*
D75*
X170276Y714567D02*
D03*
X-170276D02*
D03*
D76*
Y879921D02*
D03*
X170276D02*
D03*
%TF.MD5,1338b52beedc29cd3377764a2ad7bb59*%
M02*
