%TF.GenerationSoftware,Altium Limited,Altium Designer,23.2.1 (34)*%
G04 Layer_Color=0*
%FSLAX26Y26*%
%MOIN*%
%TF.SameCoordinates,DAB62C51-C882-44BF-9B97-BA74F53622F3*%
%TF.FilePolarity,Positive*%
%TF.FileFunction,Plated,1,4,PTH,Drill*%
%TF.Part,Single*%
G01*
G75*
%TA.AperFunction,ComponentDrill*%
%ADD82O,0.021654X0.068898*%
%ADD83O,0.021654X0.057087*%
%TA.AperFunction,ViaDrill,NotFilled*%
%ADD84C,0.011811*%
%ADD85C,0.009842*%
D82*
X170276Y714567D02*
D03*
X-170276D02*
D03*
D83*
Y879921D02*
D03*
X170276D02*
D03*
D84*
X-374016Y787402D02*
D03*
X-141732Y-370079D02*
D03*
X-62992Y275591D02*
D03*
Y322835D02*
D03*
X-59055Y362205D02*
D03*
X47244Y381890D02*
D03*
X-338583Y897638D02*
D03*
X-409449D02*
D03*
X338583D02*
D03*
X-334646Y716535D02*
D03*
X409449Y897638D02*
D03*
X393701Y846457D02*
D03*
X267716Y708661D02*
D03*
X334646Y716535D02*
D03*
X265748Y659449D02*
D03*
X296435Y328562D02*
D03*
X125984Y-204724D02*
D03*
X-118110Y501969D02*
D03*
X-147638Y541339D02*
D03*
X177165Y600394D02*
D03*
Y413386D02*
D03*
X305118Y442913D02*
D03*
X29528Y777559D02*
D03*
X-226378Y748032D02*
D03*
X-39370Y757874D02*
D03*
X216535Y462598D02*
D03*
X-255905Y708661D02*
D03*
X-59055Y885827D02*
D03*
X49213Y905512D02*
D03*
X-98425Y846457D02*
D03*
X98425Y856299D02*
D03*
X-236220D02*
D03*
X344488Y403543D02*
D03*
X413386D02*
D03*
X462598Y413386D02*
D03*
Y314961D02*
D03*
Y216535D02*
D03*
X-344488Y856299D02*
D03*
X-236220Y639764D02*
D03*
X-383858Y570866D02*
D03*
X-374016Y157480D02*
D03*
X-314961Y246063D02*
D03*
Y108268D02*
D03*
X322835Y618110D02*
D03*
X383858Y610236D02*
D03*
X433071Y610236D02*
D03*
X-462598Y561024D02*
D03*
Y472441D02*
D03*
Y383858D02*
D03*
X-403543Y364173D02*
D03*
X-314961Y633858D02*
D03*
X0Y866142D02*
D03*
X118110Y915354D02*
D03*
X-118110D02*
D03*
X-187008Y816929D02*
D03*
X-226378Y580709D02*
D03*
X-147638D02*
D03*
X-157480Y462598D02*
D03*
X55118Y492126D02*
D03*
X94488Y472441D02*
D03*
X177165Y137795D02*
D03*
X108268Y177165D02*
D03*
X-305118Y-59055D02*
D03*
X-462598Y137795D02*
D03*
Y39370D02*
D03*
Y-59055D02*
D03*
X-344488Y39370D02*
D03*
X-403543Y-118110D02*
D03*
X-305118Y-19685D02*
D03*
X216535Y610236D02*
D03*
X462598Y137795D02*
D03*
X187008Y216535D02*
D03*
X413386Y-137795D02*
D03*
X462598D02*
D03*
Y-226378D02*
D03*
X311024Y-224409D02*
D03*
X-236220Y448819D02*
D03*
X246063Y-354331D02*
D03*
X196850Y-403543D02*
D03*
X147638Y-354331D02*
D03*
X98425Y-403543D02*
D03*
X413386Y-187008D02*
D03*
Y-265748D02*
D03*
X-216535D02*
D03*
X-462598Y-157480D02*
D03*
X-265748D02*
D03*
X-364173D02*
D03*
X-244095Y-236220D02*
D03*
X-319808Y-247484D02*
D03*
X-429134Y-204724D02*
D03*
X-462598Y-255905D02*
D03*
X-226378Y-403543D02*
D03*
X-149606Y-137795D02*
D03*
X-110236Y-224409D02*
D03*
Y-188976D02*
D03*
X19685Y-224409D02*
D03*
Y-188976D02*
D03*
X305118Y-403543D02*
D03*
X344488Y-354331D02*
D03*
X49213D02*
D03*
X0Y-403543D02*
D03*
X-421260Y-311024D02*
D03*
X-318898Y-330709D02*
D03*
X-216535Y-322835D02*
D03*
X-265748Y-354331D02*
D03*
X-364173D02*
D03*
X393701Y-305118D02*
D03*
X442913Y-354331D02*
D03*
X393701Y-403543D02*
D03*
X-35433Y-334646D02*
D03*
X-98425Y-403543D02*
D03*
X-314961D02*
D03*
X141732Y472441D02*
D03*
X433071Y462598D02*
D03*
X137795Y344488D02*
D03*
Y628856D02*
D03*
X98421Y628852D02*
D03*
X-98421Y629918D02*
D03*
X-137795Y629921D02*
D03*
X-403543Y708661D02*
D03*
Y236220D02*
D03*
X177165Y-98425D02*
D03*
X187008Y-49213D02*
D03*
X-226378Y187008D02*
D03*
X-206693Y-206693D02*
D03*
X118110Y-265748D02*
D03*
X285433Y-118110D02*
D03*
X364173Y177165D02*
D03*
X440945Y-51181D02*
D03*
X246063Y177165D02*
D03*
X334646Y-108268D02*
D03*
X413386Y9842D02*
D03*
X-177165Y-59055D02*
D03*
X462599Y49213D02*
D03*
X187008Y29527D02*
D03*
Y68898D02*
D03*
X88583Y374016D02*
D03*
X78740Y324803D02*
D03*
D85*
X-10827Y164370D02*
D03*
X303150Y59055D02*
D03*
X16453Y139153D02*
D03*
X138052Y39113D02*
D03*
X-265748Y-411417D02*
D03*
X246063Y-29528D02*
D03*
X285433D02*
D03*
X-39370Y531496D02*
D03*
X108138Y-167453D02*
D03*
X246063Y-118110D02*
D03*
X59055Y-167323D02*
D03*
X49213Y0D02*
D03*
X0Y-49213D02*
D03*
X-49213Y0D02*
D03*
X0Y49213D02*
D03*
X49213Y-49213D02*
D03*
X-49213D02*
D03*
X49213Y49213D02*
D03*
X-49213D02*
D03*
X324803Y177165D02*
D03*
X403543Y-78740D02*
D03*
X344488Y98425D02*
D03*
%TF.MD5,6c2fe5111b36f91496c485457aabf089*%
M02*
