%TF.GenerationSoftware,Altium Limited,Altium Designer,23.2.1 (34)*%
G04 Layer_Color=8421504*
%FSLAX26Y26*%
%MOIN*%
%TF.SameCoordinates,DAB62C51-C882-44BF-9B97-BA74F53622F3*%
%TF.FilePolarity,Positive*%
%TF.FileFunction,Paste,Top*%
%TF.Part,Single*%
G01*
G75*
%TA.AperFunction,SMDPad,CuDef*%
%ADD12R,0.011811X0.035433*%
%ADD13R,0.023622X0.027559*%
%TA.AperFunction,ConnectorPad*%
%ADD14R,0.041339X0.025591*%
%TA.AperFunction,SMDPad,CuDef*%
%ADD15R,0.031496X0.039370*%
%ADD23R,0.027559X0.023622*%
%ADD24R,0.029528X0.011811*%
%ADD25R,0.011811X0.029528*%
%ADD26R,0.039370X0.031496*%
%ADD27R,0.118110X0.082677*%
%ADD28R,0.062992X0.031496*%
G04:AMPARAMS|DCode=29|XSize=135.827mil|YSize=135.827mil|CornerRadius=6.791mil|HoleSize=0mil|Usage=FLASHONLY|Rotation=270.000|XOffset=0mil|YOffset=0mil|HoleType=Round|Shape=RoundedRectangle|*
%AMROUNDEDRECTD29*
21,1,0.135827,0.122244,0,0,270.0*
21,1,0.122244,0.135827,0,0,270.0*
1,1,0.013583,-0.061122,-0.061122*
1,1,0.013583,-0.061122,0.061122*
1,1,0.013583,0.061122,0.061122*
1,1,0.013583,0.061122,-0.061122*
%
%ADD29ROUNDEDRECTD29*%
G04:AMPARAMS|DCode=30|XSize=9.842mil|YSize=27.559mil|CornerRadius=0.492mil|HoleSize=0mil|Usage=FLASHONLY|Rotation=90.000|XOffset=0mil|YOffset=0mil|HoleType=Round|Shape=RoundedRectangle|*
%AMROUNDEDRECTD30*
21,1,0.009842,0.026575,0,0,90.0*
21,1,0.008858,0.027559,0,0,90.0*
1,1,0.000984,0.013287,0.004429*
1,1,0.000984,0.013287,-0.004429*
1,1,0.000984,-0.013287,-0.004429*
1,1,0.000984,-0.013287,0.004429*
%
%ADD30ROUNDEDRECTD30*%
G04:AMPARAMS|DCode=31|XSize=9.842mil|YSize=27.559mil|CornerRadius=0.492mil|HoleSize=0mil|Usage=FLASHONLY|Rotation=0.000|XOffset=0mil|YOffset=0mil|HoleType=Round|Shape=RoundedRectangle|*
%AMROUNDEDRECTD31*
21,1,0.009842,0.026575,0,0,0.0*
21,1,0.008858,0.027559,0,0,0.0*
1,1,0.000984,0.004429,-0.013287*
1,1,0.000984,-0.004429,-0.013287*
1,1,0.000984,-0.004429,0.013287*
1,1,0.000984,0.004429,0.013287*
%
%ADD31ROUNDEDRECTD31*%
%TA.AperFunction,ConnectorPad*%
%ADD32R,0.023622X0.059055*%
%ADD33R,0.011811X0.059055*%
%TA.AperFunction,TestPad*%
G04:AMPARAMS|DCode=34|XSize=35.433mil|YSize=31.496mil|CornerRadius=1.575mil|HoleSize=0mil|Usage=FLASHONLY|Rotation=90.000|XOffset=0mil|YOffset=0mil|HoleType=Round|Shape=RoundedRectangle|*
%AMROUNDEDRECTD34*
21,1,0.035433,0.028346,0,0,90.0*
21,1,0.032283,0.031496,0,0,90.0*
1,1,0.003150,0.014173,0.016142*
1,1,0.003150,0.014173,-0.016142*
1,1,0.003150,-0.014173,-0.016142*
1,1,0.003150,-0.014173,0.016142*
%
%ADD34ROUNDEDRECTD34*%
%TA.AperFunction,SMDPad,CuDef*%
%ADD35R,0.023622X0.047244*%
%ADD36R,0.041339X0.023622*%
%TA.AperFunction,NonConductor*%
%ADD77R,0.062992X0.007874*%
%TA.AperFunction,SMDPad,CuDef*%
%ADD78R,0.057087X0.001968*%
D12*
X-29527Y218701D02*
D03*
X-9842D02*
D03*
X9843D02*
D03*
X29528D02*
D03*
X-29527Y332480D02*
D03*
X-9842D02*
D03*
X9843D02*
D03*
X29528D02*
D03*
D13*
X413386Y748032D02*
D03*
X452756D02*
D03*
X295276D02*
D03*
X334646D02*
D03*
X98425Y580709D02*
D03*
X137795D02*
D03*
X19685Y-265748D02*
D03*
X-19685D02*
D03*
X19685Y-147638D02*
D03*
X-19685D02*
D03*
X147638Y137795D02*
D03*
X108268D02*
D03*
X-108268Y-265748D02*
D03*
X-68898D02*
D03*
X-108268Y-147638D02*
D03*
X-68898D02*
D03*
X285433Y-78740D02*
D03*
X246063D02*
D03*
X334646D02*
D03*
X374016D02*
D03*
X-295276Y748032D02*
D03*
X-334646D02*
D03*
X-413386D02*
D03*
X-452756D02*
D03*
X374016Y-187008D02*
D03*
X334646D02*
D03*
X374016Y-265748D02*
D03*
X334646D02*
D03*
X295276Y659449D02*
D03*
X334646D02*
D03*
X344488Y442913D02*
D03*
X383858D02*
D03*
D14*
X455709Y813976D02*
D03*
X292323D02*
D03*
X455709Y898622D02*
D03*
X292323D02*
D03*
X-455709D02*
D03*
X-292323D02*
D03*
X-455709Y813976D02*
D03*
X-292323D02*
D03*
D15*
X275591Y-187008D02*
D03*
X216535D02*
D03*
X275591Y-265748D02*
D03*
X216535D02*
D03*
X393701Y659449D02*
D03*
X452756D02*
D03*
D23*
X94488Y501969D02*
D03*
Y541339D02*
D03*
X141732Y501969D02*
D03*
Y541339D02*
D03*
X-19685Y-226378D02*
D03*
Y-187008D02*
D03*
X-147638Y-98425D02*
D03*
Y-59055D02*
D03*
X147638Y-78740D02*
D03*
Y-39370D02*
D03*
X78740Y295276D02*
D03*
Y255905D02*
D03*
X-68898Y-226378D02*
D03*
Y-187008D02*
D03*
X-187008Y157480D02*
D03*
Y118110D02*
D03*
X216535Y177165D02*
D03*
Y137795D02*
D03*
X-216536Y-59055D02*
D03*
Y-98425D02*
D03*
X-265748Y157480D02*
D03*
Y118110D02*
D03*
X-265748Y-19685D02*
D03*
Y19685D02*
D03*
Y-59055D02*
D03*
Y-98425D02*
D03*
X236220Y748032D02*
D03*
Y708661D02*
D03*
Y856299D02*
D03*
Y895669D02*
D03*
X433071Y49213D02*
D03*
Y88583D02*
D03*
X216535Y68898D02*
D03*
Y29527D02*
D03*
X-187008Y580709D02*
D03*
Y541338D02*
D03*
D24*
X375984Y118110D02*
D03*
Y98425D02*
D03*
Y78740D02*
D03*
Y59055D02*
D03*
Y39370D02*
D03*
Y19685D02*
D03*
Y0D02*
D03*
X273622D02*
D03*
Y19685D02*
D03*
Y39370D02*
D03*
Y59055D02*
D03*
Y78740D02*
D03*
Y98425D02*
D03*
Y118110D02*
D03*
D25*
X324803Y-21654D02*
D03*
Y139764D02*
D03*
D26*
X-167323Y-206693D02*
D03*
Y-265748D02*
D03*
X78740Y-206693D02*
D03*
Y-265748D02*
D03*
X137795Y305118D02*
D03*
Y246063D02*
D03*
X433071Y501969D02*
D03*
Y561024D02*
D03*
X216535Y501969D02*
D03*
Y561024D02*
D03*
D27*
X-401575Y298228D02*
D03*
Y646653D02*
D03*
D28*
X-287402Y398622D02*
D03*
Y447834D02*
D03*
Y497047D02*
D03*
Y546260D02*
D03*
D29*
X0Y0D02*
D03*
D30*
X-94488Y-68898D02*
D03*
Y-49213D02*
D03*
Y-29528D02*
D03*
Y-9842D02*
D03*
Y9842D02*
D03*
Y29528D02*
D03*
Y49213D02*
D03*
Y68898D02*
D03*
X94488D02*
D03*
Y49213D02*
D03*
Y29528D02*
D03*
Y9842D02*
D03*
Y-9842D02*
D03*
Y-29528D02*
D03*
Y-49213D02*
D03*
Y-68898D02*
D03*
D31*
X-68898Y94488D02*
D03*
X-49213D02*
D03*
X-29528D02*
D03*
X-9842D02*
D03*
X9842D02*
D03*
X29528D02*
D03*
X49213D02*
D03*
X68898D02*
D03*
Y-94488D02*
D03*
X49213D02*
D03*
X29528D02*
D03*
X9842D02*
D03*
X-9842D02*
D03*
X-29528D02*
D03*
X-49213D02*
D03*
X-68898D02*
D03*
D32*
X94488Y685039D02*
D03*
X125984D02*
D03*
X-125984D02*
D03*
X-94488D02*
D03*
D33*
X68898D02*
D03*
X49213D02*
D03*
X29528D02*
D03*
X-68898D02*
D03*
X-49213D02*
D03*
X-29528D02*
D03*
X-9842D02*
D03*
X9842D02*
D03*
D34*
X-345472Y-75787D02*
D03*
Y-2953D02*
D03*
X-402559Y-75787D02*
D03*
Y-2953D02*
D03*
D35*
X-57087Y486220D02*
D03*
X-19685D02*
D03*
X17716D02*
D03*
Y576772D02*
D03*
X-19685D02*
D03*
X-57087D02*
D03*
X-263780Y230315D02*
D03*
X-226378D02*
D03*
X-188976D02*
D03*
Y320866D02*
D03*
X-226378D02*
D03*
X-263780D02*
D03*
D36*
X272638Y568898D02*
D03*
Y531496D02*
D03*
Y494095D02*
D03*
X376968D02*
D03*
Y568898D02*
D03*
D77*
X0Y275591D02*
D03*
D78*
Y275591D02*
D03*
%TF.MD5,8ccf702d07c2be2b9a25fb23e6bdd68b*%
M02*
